# xmcd
#
# Track frame offsets:
#	150
#	14355
#	25517
#	36427
#	50312
#	65120
#	78795
#	90835
#	102000
#	121935
#	132157
#	142382
#	157380
#	171355
#	183855
#	203405
#	217012
#	226425
#
# Disc length: 3234 seconds
#
# Revision: 0
# Processed by: cddbd v1.5.2PL0 Copyright (c) Steve Scherf et al.
# Submitted via: EasyCDDAExtractor 16.1.0.1
#
DISCID=f30ca012
DTITLE=麗莎 - 賀年特輯
DYEAR=1978
DGENRE=
TTITLE0=曲目 1賀年
TTITLE1=曲目 2新春願望
TTITLE2=曲目 3一寸光陰一寸金
TTITLE3=曲目 4歌頌新春
TTITLE4=曲目 5錦繡前程
TTITLE5=曲目 6萬花禧春
TTITLE6=曲目 7春之歌
TTITLE7=曲目 8好春宵
TTITLE8=曲目 9祝君快槃
TTITLE9=曲目 10高歌太平年
TTITLE10=曲目 11快樂新年
TTITLE11=曲目 12春去冬來
TTITLE12=曲目 13迎春花
TTITLE13=曲目 14大年三十晚多樂趣
TTITLE14=曲目 15春光姸
TTITLE15=曲目 16接財神
TTITLE16=曲目 17普天同慶喜洋洋
TTITLE17=曲目 18萬事勝意喜洋洋
EXTD=
EXTT0=
EXTT1=
EXTT2=
EXTT3=
EXTT4=
EXTT5=
EXTT6=
EXTT7=
EXTT8=
EXTT9=
EXTT10=
EXTT11=
EXTT12=
EXTT13=
EXTT14=
EXTT15=
EXTT16=
EXTT17=
PLAYORDER=
